<svg width="98" height="98" viewBox="0 0 98 98" fill="none" xmlns="http://www.w3.org/2000/svg">
<rect x="11.0185" y="11.0185" width="76" height="76" rx="38" fill="url(#paint0_linear_261_1357)"/>
<path d="M54.5085 26.6162C54.5796 26.3493 54.7027 26.0989 54.8707 25.8796C55.0386 25.6602 55.2482 25.4761 55.4873 25.3378C55.7265 25.1995 55.9906 25.1097 56.2645 25.0735C56.5384 25.0373 56.8168 25.0555 57.0836 25.127C61.0066 26.1818 64.5834 28.249 67.4559 31.1215C70.3283 33.9939 72.3955 37.5708 73.4503 41.4937C73.5247 41.7616 73.5452 42.0415 73.5108 42.3173C73.4763 42.5931 73.3875 42.8593 73.2496 43.1006C73.1116 43.3419 72.9272 43.5534 72.7069 43.723C72.4867 43.8926 72.2351 44.0169 71.9665 44.0886C71.698 44.1604 71.4179 44.1782 71.1425 44.1411C70.867 44.1039 70.6016 44.0125 70.3617 43.8722C70.1218 43.7319 69.912 43.5454 69.7446 43.3236C69.5771 43.1017 69.4553 42.8489 69.3862 42.5796C68.5234 39.3705 66.8323 36.4445 64.4826 34.0948C62.1328 31.745 59.2068 30.054 55.9977 29.1911C55.4588 29.0471 54.9992 28.695 54.7199 28.2121C54.4406 27.7292 54.3645 27.1552 54.5085 26.6162ZM53.8196 37.3202C55.6023 37.7996 57.2277 38.7391 58.5329 40.0445C59.8382 41.3499 60.7776 42.9753 61.2569 44.758C61.4044 45.2931 61.7574 45.7481 62.239 46.024C62.7205 46.2999 63.2916 46.3743 63.8278 46.231C64.3639 46.0877 64.8218 45.7383 65.1015 45.259C65.3812 44.7796 65.4601 44.2092 65.321 43.6719C64.6498 41.1753 63.3343 38.899 61.5063 37.071C59.6783 35.2429 57.402 33.9274 54.9055 33.2561C54.3686 33.1182 53.799 33.1978 53.3205 33.4777C52.842 33.7575 52.4933 34.2149 52.3502 34.7504C52.2071 35.286 52.2812 35.8563 52.5563 36.3376C52.8315 36.8188 53.2855 37.1719 53.8196 37.3202ZM75.5083 62.6758C75.0516 66.2285 73.3172 69.4933 70.629 71.8605C67.9408 74.2276 64.4827 75.5351 60.9009 75.5387C40.0236 75.5387 23.0387 58.5538 23.0387 37.6765C23.0423 34.0946 24.3498 30.6366 26.7169 27.9484C29.0839 25.2602 32.3487 23.5258 35.9013 23.069C36.8053 22.9601 37.7203 23.1466 38.5095 23.6008C39.2987 24.055 39.9197 24.7523 40.2797 25.5887L45.5625 37.9144C45.8365 38.552 45.9482 39.2476 45.8877 39.9389C45.8271 40.6303 45.5961 41.2958 45.2154 41.876L40.8415 48.5592C42.8166 52.5749 46.0732 55.8182 50.0975 57.7755L56.6821 53.3862C57.2639 52.9968 57.9339 52.7593 58.631 52.6952C59.3282 52.6312 60.0302 52.7427 60.6732 53.0196L72.9884 58.2975C73.8249 58.6573 74.5225 59.2782 74.9767 60.0674C75.4309 60.8567 75.6174 61.7718 75.5083 62.6758ZM71.3348 62.1486L59.0162 56.8866L52.4337 61.276C51.8286 61.68 51.129 61.9201 50.4033 61.9726C49.6777 62.0252 48.9508 61.8884 48.2938 61.5757C43.4012 59.2049 39.443 55.2647 37.0498 50.3829C36.7355 49.7299 36.5953 49.0067 36.6429 48.2835C36.6904 47.5603 36.9241 46.8617 37.3212 46.2554L41.6953 39.5717L36.413 27.2462C33.879 27.5751 31.5512 28.815 29.8643 30.7343C28.1774 32.6536 27.2466 35.1212 27.2456 37.6765C27.2557 46.5993 30.8047 55.1538 37.1142 61.4632C43.4236 67.7727 51.978 71.3217 60.9009 71.3318C63.4588 71.3298 65.9284 70.3966 67.8486 68.7067C69.7687 67.0167 71.0079 64.6856 71.3348 62.1486Z" fill="white"/>
<rect x="1" y="1" width="96" height="96" rx="48" stroke="white" stroke-width="2"/>
<defs>
<linearGradient id="paint0_linear_261_1357" x1="30.1564" y1="49.0185" x2="191.249" y2="49.0185" gradientUnits="userSpaceOnUse">
<stop stop-color="#13D59F"/>
<stop offset="0.514259" stop-color="#13D59F"/>
<stop offset="1" stop-color="#13D59F"/>
</linearGradient>
</defs>
</svg>
