<svg width="375" height="812" viewBox="0 0 375 812" fill="none" xmlns="http://www.w3.org/2000/svg">
<g clip-path="url(#clip0_161_53)">
<rect width="375" height="812" fill="#3C54EC"/>
<path fill-rule="evenodd" clip-rule="evenodd" d="M256.675 -282.358C299.136 -230.559 311.714 -153.469 291.812 -89.5165C272.676 -28.027 202.209 -3.69915 155.997 41.152C109.95 85.8438 82.5692 151.893 21.8108 172.536C-44.2052 194.965 -122.736 193.276 -181.552 155.836C-238.93 119.312 -260.215 47.353 -277.986 -18.3007C-293 -73.7688 -284.032 -129.815 -274.196 -186.432C-264.388 -242.894 -252.473 -297.551 -221.139 -345.534C-182.517 -404.679 -145.529 -491.631 -74.8901 -491.646C-1.67687 -491.662 19.9774 -384.678 81.8885 -345.599C135.597 -311.697 216.41 -331.476 256.675 -282.358Z" fill="#2575FC"/>
<path fill-rule="evenodd" clip-rule="evenodd" d="M357.022 652.856C423.968 650.815 492.722 687.884 531.25 742.671C568.294 795.348 544.577 866.023 551.919 930.001C559.235 993.752 594.861 1055.74 574.148 1116.48C551.641 1182.47 502.391 1243.66 436.842 1267.42C372.896 1290.59 302.896 1263.56 240.035 1237.58C186.927 1215.63 147.992 1174.33 109.135 1132C70.3831 1089.78 34.3471 1046.99 15.446 992.891C-7.85208 926.205 -54.1785 843.848 -11.0928 787.87C33.563 729.853 131.539 777.968 200.275 752.758C259.904 730.887 293.538 654.79 357.022 652.856Z" fill="#2575FC"/>
</g>
<defs>
<clipPath id="clip0_161_53">
<rect width="375" height="812" fill="white"/>
</clipPath>
</defs>
</svg>
