<svg width="302" height="188" viewBox="0 0 302 188" fill="none" xmlns="http://www.w3.org/2000/svg">
<path fill-rule="evenodd" clip-rule="evenodd" d="M256.675 -282.358C299.136 -230.559 311.714 -153.469 291.812 -89.5165C272.676 -28.027 202.209 -3.69917 155.997 41.152C109.95 85.8438 82.5692 151.893 21.8108 172.536C-44.2051 194.965 -122.736 193.276 -181.552 155.836C-238.93 119.312 -260.215 47.353 -277.986 -18.3007C-293 -73.7688 -284.032 -129.815 -274.196 -186.432C-264.388 -242.894 -252.473 -297.551 -221.139 -345.534C-182.517 -404.679 -145.529 -491.631 -74.8901 -491.646C-1.67687 -491.662 19.9774 -384.678 81.8885 -345.599C135.597 -311.697 216.41 -331.476 256.675 -282.358Z" fill="#2575FC"/>
</svg>
