<svg width="375" height="160" viewBox="0 0 375 160" fill="none" xmlns="http://www.w3.org/2000/svg">
<path fill-rule="evenodd" clip-rule="evenodd" d="M357.022 0.855712C423.968 -1.18458 492.722 35.8836 531.25 90.6706C568.294 143.348 544.577 214.023 551.919 278.001C559.235 341.752 594.861 403.744 574.148 464.478C551.641 530.468 502.391 591.658 436.842 615.417C372.896 638.595 302.896 611.556 240.035 585.58C186.927 563.634 147.992 522.334 109.135 479.999C70.3831 437.779 34.3471 394.992 15.446 340.891C-7.85208 274.205 -54.1785 191.848 -11.0928 135.87C33.563 77.8529 131.54 125.968 200.275 100.758C259.904 78.8873 293.538 2.79045 357.022 0.855712Z" fill="#2575FC"/>
</svg>
