<svg width="158" height="158" viewBox="0 0 158 158" fill="none" xmlns="http://www.w3.org/2000/svg">
<rect width="158" height="158" rx="79" fill="#2575FC"/>
<path fill-rule="evenodd" clip-rule="evenodd" d="M111.197 46.803C111.453 47.0585 111.656 47.3619 111.795 47.696C111.933 48.0301 112.005 48.3883 112.005 48.75C112.005 49.1117 111.933 49.4699 111.795 49.804C111.656 50.1381 111.453 50.4416 111.197 50.697L50.6969 111.197C50.1806 111.713 49.4802 112.003 48.7499 112.003C48.0197 112.003 47.3193 111.713 46.8029 111.197C46.2866 110.681 45.9965 109.98 45.9965 109.25C45.9965 108.52 46.2866 107.819 46.8029 107.303L107.303 46.803C107.558 46.5469 107.862 46.3437 108.196 46.2051C108.53 46.0664 108.888 45.9951 109.25 45.9951C109.612 45.9951 109.97 46.0664 110.304 46.2051C110.638 46.3437 110.941 46.5469 111.197 46.803Z" fill="white"/>
<path fill-rule="evenodd" clip-rule="evenodd" d="M46.803 46.803C46.5469 47.0585 46.3437 47.3619 46.2051 47.696C46.0665 48.0301 45.9951 48.3883 45.9951 48.75C45.9951 49.1117 46.0665 49.4699 46.2051 49.804C46.3437 50.1381 46.5469 50.4416 46.803 50.697L107.303 111.197C107.819 111.713 108.52 112.003 109.25 112.003C109.98 112.003 110.681 111.713 111.197 111.197C111.713 110.681 112.004 109.98 112.004 109.25C112.004 108.52 111.713 107.819 111.197 107.303L50.697 46.803C50.4416 46.5469 50.1381 46.3437 49.804 46.2051C49.4699 46.0664 49.1118 45.9951 48.75 45.9951C48.3883 45.9951 48.0301 46.0664 47.696 46.2051C47.3619 46.3437 47.0585 46.5469 46.803 46.803Z" fill="white"/>
</svg>
