<svg width="416" height="416" viewBox="0 0 416 416" fill="none" xmlns="http://www.w3.org/2000/svg">
<circle cx="208" cy="208" r="208" fill="white"/>
<path d="M208 0C93.1 0 0 93.1 0 208C0 322.9 93.1 416 208 416C322.9 416 416 322.9 416 208C416 93.1 322.9 0 208 0ZM208 17.3C313.1 17.3 398.7 102.8 398.7 208C398.7 254.5 382 297.1 354.3 330.2C334.3 322 288.4 306.1 261.4 298.1C259 297.4 258.7 297.2 258.7 287.4C258.7 279.3 262 271.1 265.3 264.1C268.9 256.6 273 243.9 274.5 232.5C278.7 227.6 284.5 218 288.1 199.6C291.3 183.4 289.8 177.5 287.7 172C287.5 171.4 287.2 170.8 287.1 170.3C286.3 166.5 287.4 146.8 290.2 131.5C292.1 121 289.7 98.7 275.3 80.2C266.2 68.5 248.7 54.2 216.8 52.2H199.3C167.9 54.2 150.5 68.5 141.3 80.2C126.8 98.7 124.4 121 126.3 131.5C129.1 146.8 130.2 166.5 129.4 170.3C129.2 171 129 171.5 128.8 172.1C126.7 177.6 125.1 183.5 128.4 199.7C132.1 218.1 137.8 227.7 142 232.6C143.5 244 147.7 256.6 151.2 264.2C153.8 269.7 155 277.2 155 287.8C155 297.7 154.6 297.8 152.4 298.5C124.3 306.8 79.8 322.8 62 330.5C34.1 297.3 17.3 254.6 17.3 208C17.3 102.9 102.9 17.3 208 17.3V17.3Z" fill="#3C54EC"/>
</svg>
