<svg width="198" height="198" viewBox="0 0 198 198" fill="none" xmlns="http://www.w3.org/2000/svg">
<circle opacity="0.7" cx="98.5647" cy="97.5647" r="60.0647" stroke="url(#paint0_linear_231_415)"/>
<circle opacity="0.5" cx="98.7824" cy="98.7824" r="79.2824" stroke="url(#paint1_linear_231_415)"/>
<circle opacity="0.2" cx="99" cy="99" r="98.5" stroke="url(#paint2_linear_231_415)"/>
<rect x="50" y="50" width="97" height="97" rx="48.5" fill="#009FFF"/>
<rect x="61" y="61" width="75.3511" height="75.3511" rx="37.6756" fill="url(#paint3_linear_231_415)"/>
<path fill-rule="evenodd" clip-rule="evenodd" d="M103.659 77.4064C104.084 76.9815 104.659 76.7429 105.259 76.7429C105.859 76.7429 106.434 76.9815 106.858 77.4064L110.915 81.4697L114.971 77.4064C115.18 77.1899 115.429 77.0173 115.705 76.8985C115.981 76.7798 116.278 76.7172 116.579 76.7146C116.879 76.712 117.177 76.7693 117.455 76.8833C117.733 76.9972 117.985 77.1655 118.198 77.3783C118.41 77.5911 118.578 77.8441 118.692 78.1226C118.806 78.4011 118.863 78.6995 118.86 79.0004C118.858 79.3013 118.795 79.5987 118.677 79.8752C118.558 80.1517 118.386 80.4017 118.17 80.6108L114.114 84.6741L118.17 88.7374C118.582 89.1648 118.81 89.7372 118.805 90.3314C118.8 90.9256 118.562 91.494 118.142 91.9142C117.723 92.3344 117.155 92.5727 116.562 92.5778C115.969 92.583 115.398 92.3546 114.971 91.9418L110.915 87.8785L106.858 91.9418C106.432 92.3546 105.86 92.583 105.267 92.5778C104.674 92.5727 104.106 92.3344 103.687 91.9142C103.268 91.494 103.03 90.9256 103.024 90.3314C103.019 89.7372 103.247 89.1648 103.659 88.7374L107.716 84.6741L103.659 80.6108C103.235 80.1858 102.997 79.6095 102.997 79.0086C102.997 78.4077 103.235 77.8314 103.659 77.4064Z" fill="white"/>
<path d="M124.934 112.233C124.482 115.749 122.765 118.981 120.105 121.324C117.444 123.667 114.021 124.961 110.476 124.964C89.8115 124.964 73 108.153 73 87.4884C73.0036 83.9431 74.2977 80.5204 76.6406 77.8596C78.9836 75.1989 82.215 73.4821 85.7314 73.03C86.6261 72.9222 87.5318 73.1068 88.3129 73.5564C89.094 74.0059 89.7087 74.6961 90.065 75.524L95.2939 87.7239C95.5652 88.355 95.6758 89.0435 95.6158 89.7278C95.5559 90.412 95.3273 91.0708 94.9504 91.6451L90.6212 98.2601C92.5761 102.235 95.7995 105.445 99.7827 107.382L106.3 103.038C106.876 102.652 107.539 102.417 108.229 102.354C108.919 102.291 109.614 102.401 110.25 102.675L122.44 107.899C123.268 108.255 123.958 108.87 124.408 109.651C124.858 110.432 125.042 111.338 124.934 112.233ZM120.803 111.711L108.61 106.502L102.095 110.847C101.496 111.247 100.804 111.485 100.085 111.537C99.3671 111.589 98.6477 111.453 97.9974 111.144C93.1547 108.797 89.2369 104.897 86.8681 100.065C86.5571 99.4188 86.4183 98.703 86.4654 97.9872C86.5124 97.2714 86.7437 96.5799 87.1367 95.9798L91.4662 89.3643L86.2378 77.1646C83.7296 77.4901 81.4257 78.7173 79.756 80.617C78.0863 82.5168 77.1649 84.9592 77.164 87.4884C77.174 96.3202 80.6868 104.787 86.9318 111.032C93.1768 117.277 101.644 120.79 110.476 120.8C113.008 120.798 115.452 119.875 117.353 118.202C119.253 116.529 120.48 114.222 120.803 111.711Z" fill="white"/>
<defs>
<linearGradient id="paint0_linear_231_415" x1="38" y1="97.5647" x2="159.129" y2="97.5647" gradientUnits="userSpaceOnUse">
<stop stop-color="#2AF598"/>
<stop offset="1" stop-color="#009EFD"/>
</linearGradient>
<linearGradient id="paint1_linear_231_415" x1="19" y1="98.7824" x2="178.565" y2="98.7824" gradientUnits="userSpaceOnUse">
<stop stop-color="#2AF598"/>
<stop offset="1" stop-color="#009EFD"/>
</linearGradient>
<linearGradient id="paint2_linear_231_415" x1="0" y1="99" x2="198" y2="99" gradientUnits="userSpaceOnUse">
<stop stop-color="#2AF598"/>
<stop offset="1" stop-color="#009EFD"/>
</linearGradient>
<linearGradient id="paint3_linear_231_415" x1="79.9745" y1="98.6756" x2="239.691" y2="98.6756" gradientUnits="userSpaceOnUse">
<stop stop-color="#F14949"/>
<stop offset="0.514259" stop-color="#13D59F"/>
<stop offset="1" stop-color="#13D59F"/>
</linearGradient>
</defs>
</svg>
