<svg width="198" height="198" viewBox="0 0 198 198" fill="none" xmlns="http://www.w3.org/2000/svg">
<circle opacity="0.7" cx="98.5647" cy="97.5647" r="60.0647" stroke="url(#paint0_linear_261_301)"/>
<circle opacity="0.5" cx="98.7824" cy="98.7824" r="79.2824" stroke="url(#paint1_linear_261_301)"/>
<circle opacity="0.2" cx="99" cy="99" r="98.5" stroke="url(#paint2_linear_261_301)"/>
<rect x="50" y="50" width="97" height="97" rx="48.5" fill="#009FFF"/>
<rect x="61" y="61" width="75.3511" height="75.3511" rx="37.6756" fill="url(#paint3_linear_261_301)"/>
<path d="M104.47 76.5775C104.541 76.3105 104.664 76.0602 104.832 75.8409C105 75.6215 105.209 75.4374 105.449 75.2991C105.688 75.1608 105.952 75.0709 106.226 75.0348C106.5 74.9986 106.778 75.0168 107.045 75.0883C110.968 76.1431 114.545 78.2103 117.417 81.0827C120.29 83.9552 122.357 87.5321 123.412 91.455C123.486 91.7228 123.507 92.0027 123.472 92.2785C123.438 92.5544 123.349 92.8206 123.211 93.0619C123.073 93.3032 122.888 93.5147 122.668 93.6843C122.448 93.8539 122.196 93.9782 121.928 94.0499C121.659 94.1217 121.379 94.1395 121.104 94.1023C120.828 94.0652 120.563 93.9738 120.323 93.8335C120.083 93.6932 119.873 93.5067 119.706 93.2848C119.538 93.063 119.417 92.8101 119.348 92.5409C118.485 89.3318 116.794 86.4058 114.444 84.0561C112.094 81.7063 109.168 80.0153 105.959 79.1524C105.42 79.0084 104.96 78.6562 104.681 78.1734C104.402 77.6905 104.326 77.1165 104.47 76.5775ZM103.781 87.2815C105.564 87.7609 107.189 88.7004 108.494 90.0058C109.8 91.3112 110.739 92.9366 111.218 94.7193C111.366 95.2543 111.719 95.7094 112.2 95.9853C112.682 96.2612 113.253 96.3356 113.789 96.1923C114.325 96.049 114.783 95.6996 115.063 95.2203C115.342 94.7409 115.421 94.1704 115.282 93.6331C114.611 91.1366 113.296 88.8603 111.468 87.0322C109.64 85.2042 107.363 83.8886 104.867 83.2173C104.33 83.0795 103.76 83.1591 103.282 83.4389C102.803 83.7188 102.455 84.1762 102.311 84.7117C102.168 85.2473 102.242 85.8176 102.518 86.2988C102.793 86.78 103.247 87.1332 103.781 87.2815ZM125.47 112.637C125.013 116.19 123.278 119.455 120.59 121.822C117.902 124.189 114.444 125.496 110.862 125.5C89.9849 125.5 73 108.515 73 87.6378C73.0036 84.0559 74.3111 80.5979 76.6782 77.9097C79.0452 75.2215 82.31 73.487 85.8626 73.0303C86.7666 72.9214 87.6816 73.1079 88.4708 73.5621C89.26 74.0163 89.881 74.7136 90.241 75.55L95.5238 87.8757C95.7978 88.5133 95.9095 89.2089 95.849 89.9002C95.7884 90.5915 95.5574 91.2571 95.1767 91.8373L90.8028 98.5205C92.7779 102.536 96.0345 105.78 100.059 107.737L106.643 103.347C107.225 102.958 107.895 102.721 108.592 102.657C109.289 102.593 109.992 102.704 110.634 102.981L122.95 108.259C123.786 108.619 124.484 109.239 124.938 110.029C125.392 110.818 125.579 111.733 125.47 112.637ZM121.296 112.11L108.977 106.848L102.395 111.237C101.79 111.641 101.09 111.881 100.365 111.934C99.639 111.986 98.9121 111.85 98.2551 111.537C93.3625 109.166 89.4043 105.226 87.0111 100.344C86.6968 99.6912 86.5566 98.968 86.6042 98.2448C86.6517 97.5216 86.8854 96.823 87.2825 96.2167L91.6566 89.533L86.3743 77.2075C83.8403 77.5364 81.5125 78.7762 79.8256 80.6956C78.1387 82.6149 77.2079 85.0825 77.2069 87.6378C77.217 96.5606 80.7661 105.115 87.0755 111.425C93.3849 117.734 101.939 121.283 110.862 121.293C113.42 121.291 115.89 120.358 117.81 118.668C119.73 116.978 120.969 114.647 121.296 112.11Z" fill="white"/>
<defs>
<linearGradient id="paint0_linear_261_301" x1="38" y1="97.5647" x2="159.129" y2="97.5647" gradientUnits="userSpaceOnUse">
<stop stop-color="#2AF598"/>
<stop offset="1" stop-color="#009EFD"/>
</linearGradient>
<linearGradient id="paint1_linear_261_301" x1="19" y1="98.7824" x2="178.565" y2="98.7824" gradientUnits="userSpaceOnUse">
<stop stop-color="#2AF598"/>
<stop offset="1" stop-color="#009EFD"/>
</linearGradient>
<linearGradient id="paint2_linear_261_301" x1="0" y1="99" x2="198" y2="99" gradientUnits="userSpaceOnUse">
<stop stop-color="#2AF598"/>
<stop offset="1" stop-color="#009EFD"/>
</linearGradient>
<linearGradient id="paint3_linear_261_301" x1="79.9745" y1="98.6756" x2="239.691" y2="98.6756" gradientUnits="userSpaceOnUse">
<stop stop-color="#13D59F"/>
<stop offset="0.514259" stop-color="#13D59F"/>
<stop offset="1" stop-color="#13D59F"/>
</linearGradient>
</defs>
</svg>
