<svg width="375" height="129" viewBox="0 0 375 129" fill="none" xmlns="http://www.w3.org/2000/svg">
<path fill-rule="evenodd" clip-rule="evenodd" d="M-27 77.8599L-2.95833 72.0505C21.0833 66.2412 69.1667 54.6225 117.25 40.0992C165.333 25.5758 213.417 8.14778 261.5 2.33844C309.583 -3.4709 357.667 2.33844 405.75 11.0524C453.833 19.7665 501.917 31.3851 525.958 37.1945L550 43.0038V165H525.958C501.917 165 453.833 165 405.75 165C357.667 165 309.583 165 261.5 165C213.417 165 165.333 165 117.25 165C69.1667 165 21.0833 165 -2.95833 165H-27V77.8599Z" fill="#004FD3"/>
</svg>
