<svg width="14" height="35" viewBox="0 0 14 35" fill="none" xmlns="http://www.w3.org/2000/svg">
<path d="M6.97697 5.7307C8.48121 5.7307 9.70064 4.44784 9.70064 2.86535C9.70064 1.28286 8.48121 0 6.97697 0C5.47273 0 4.2533 1.28286 4.2533 2.86535C4.2533 4.44784 5.47273 5.7307 6.97697 5.7307Z" fill="white"/>
<path d="M13.8123 16.3753C13.2339 13.8684 12.6441 11.3648 12.0569 8.86174C11.6858 7.27544 10.6066 6.22819 9.32847 6.21112V6.20947H4.65574C3.36404 6.21002 2.27227 7.26333 1.89648 8.86174C1.30925 11.3653 0.718875 13.8667 0.141586 16.3753C0.0573947 16.7431 0.0100322 17.1192 0.000273598 17.4974C-0.00862386 17.9489 0.200205 18.2567 0.522083 18.4263C0.861233 18.6058 1.17474 18.5045 1.40503 18.1631C1.54948 17.9478 1.65415 17.6643 1.71801 17.3873C2.22935 15.2031 2.71819 13.0089 3.23162 10.8246C3.43155 9.97836 3.26878 10.0791 4.01878 10.0742C4.44377 10.072 4.45162 10.0857 4.337 10.6138C3.54774 14.2863 2.75639 17.9588 1.96923 21.6314C1.85932 22.1462 1.75098 22.6676 1.63531 23.2292H3.87276V33.4716C3.87276 34.3157 4.41655 34.9995 5.08386 34.9995C5.75222 34.9995 6.29496 34.3157 6.29496 33.4716V23.2298H7.68035V33.4721C7.68035 34.3162 8.22414 35.0001 8.89145 35.0001C9.55981 35.0001 10.1026 34.3162 10.1026 33.4721V23.2298H12.3201C12.2039 22.6676 12.0972 22.1462 11.9862 21.6319C11.1969 17.9577 10.4056 14.2852 9.61738 10.6143C9.50433 10.0863 9.51113 10.072 9.93664 10.0747C10.6872 10.0791 10.5239 9.97891 10.7243 10.8252C11.2362 13.01 11.7266 15.2036 12.2364 17.3879C12.3007 17.6648 12.4049 17.9484 12.5509 18.1637C12.7812 18.5045 13.0942 18.6063 13.4333 18.4268C13.7552 18.2573 13.9641 17.95 13.9552 17.498C13.9463 17.1196 13.8993 16.7432 13.8149 16.3753" fill="white"/>
</svg>
