<svg width="55" height="55" viewBox="0 0 55 55" fill="none" xmlns="http://www.w3.org/2000/svg">
<path fill-rule="evenodd" clip-rule="evenodd" d="M27.5404 16.2502C17.6379 11.7494 8.41063 21.2495 5.03479 27.5C8.41063 32.5004 17.6379 41.25 27.5404 41.25C37.4429 41.25 46.6702 32.5004 50.046 27.5C46.6702 21.2495 37.6679 11.2498 27.5404 16.2502ZM47.3498 27.3579C45.7024 24.6996 43.148 21.6345 40.0828 19.5663C36.5832 17.207 32.6582 16.2697 28.5216 18.3116C28.2265 18.4573 27.9037 18.5355 27.5758 18.5409C27.2479 18.5462 26.9228 18.4785 26.6233 18.3425C22.5802 16.5058 18.6124 17.4465 15.0554 19.7725C11.9643 21.7938 9.37837 24.7592 7.73546 27.3625C9.39075 29.4938 11.98 32.1361 15.1274 34.3681C18.887 37.0356 23.2216 38.9584 27.5404 38.9584C31.8592 38.9584 36.1938 37.0357 39.9545 34.3693C43.1053 32.1349 45.6957 29.4903 47.3498 27.3568V27.3579Z" fill="white"/>
<path fill-rule="evenodd" clip-rule="evenodd" d="M14.6616 27.4519C18.1815 28.6367 22.7524 29.7917 27.5404 29.7917C32.2621 29.7917 36.7722 28.6035 40.2944 27.4118C36.7171 26.2534 32.1158 25.2084 27.5404 25.2084C22.911 25.2084 18.2546 26.2786 14.6616 27.4519ZM10.6995 26.4665C14.5412 24.899 21.0161 22.9167 27.5404 22.9167C33.9545 22.9167 40.3236 24.8325 44.1867 26.3886C45.1184 26.7632 45.061 28.0993 44.1226 28.4579C40.3844 29.8822 34.201 32.0834 27.5404 32.0834C20.7437 32.0834 14.4467 29.9131 10.7344 28.4465C9.82965 28.089 9.79814 26.8354 10.6995 26.4676V26.4665Z" fill="white"/>
</svg>
