<svg width="375" height="107" viewBox="0 0 375 107" fill="none" xmlns="http://www.w3.org/2000/svg">
<path fill-rule="evenodd" clip-rule="evenodd" d="M-34 77.8599L-9.95833 72.0505C14.0833 66.2412 62.1667 54.6225 110.25 40.0992C158.333 25.5758 206.417 8.14778 254.5 2.33844C302.583 -3.4709 350.667 2.33844 398.75 11.0524C446.833 19.7665 494.917 31.3851 518.958 37.1945L543 43.0038V165H518.958C494.917 165 446.833 165 398.75 165C350.667 165 302.583 165 254.5 165C206.417 165 158.333 165 110.25 165C62.1667 165 14.0833 165 -9.95833 165H-34V77.8599Z" fill="#2575FC"/>
</svg>
