<svg width="375" height="140" viewBox="0 0 375 140" fill="none" xmlns="http://www.w3.org/2000/svg">
<path fill-rule="evenodd" clip-rule="evenodd" d="M387.889 -150.27C404.479 -93.0881 387.802 -25.6848 349.174 19.6235C312.033 63.1869 245.934 58.4291 192.482 78.9264C139.221 99.3508 93.747 143.758 36.8716 139.383C-24.9255 134.63 -88.5169 105.79 -123.495 54.6233C-157.618 4.70904 -149.852 -61.5451 -141.418 -121.417C-134.293 -172.001 -107.365 -214.671 -79.5294 -257.503C-51.7696 -300.219 -22.9193 -340.724 19.4676 -368.983C71.7148 -403.817 132.35 -461.948 190.087 -437.259C249.929 -411.671 230.217 -316.663 267.152 -263.075C299.192 -216.587 372.156 -204.493 387.889 -150.27Z" fill="#2575FC"/>
</svg>
