<svg width="55" height="55" viewBox="0 0 55 55" fill="none" xmlns="http://www.w3.org/2000/svg">
<path fill-rule="evenodd" clip-rule="evenodd" d="M27.1863 12.05C27.1282 12.0751 26.8976 12.1595 26.6737 12.2376C26.062 12.4508 25.6275 12.6048 25.3923 12.6917C25.2763 12.7346 25.1067 12.7945 25.0155 12.8249C24.9243 12.8552 24.714 12.9288 24.5481 12.9885C24.3823 13.0481 24.1381 13.1344 24.0054 13.1803C23.6611 13.2994 23.542 13.3415 22.0457 13.8729C21.6477 14.0143 21.0033 14.242 20.6136 14.379C20.2239 14.5161 19.8169 14.6599 19.7091 14.6987C18.9637 14.9669 18.5676 15.1076 18.292 15.2021C18.1179 15.2618 17.8705 15.3495 17.7422 15.397C17.6139 15.4445 17.4448 15.5047 17.3664 15.5308C17.0596 15.6327 16.8934 15.844 16.8933 16.1324C16.893 16.4554 17.0452 16.6097 17.5334 16.7818C17.7268 16.85 18.0478 16.963 18.2468 17.0328C18.5596 17.1425 19.6304 17.5217 20.668 17.89C20.8735 17.963 20.9737 18.0128 20.9641 18.0373C20.9147 18.1636 20.7863 18.7121 20.7329 19.0254C20.5399 20.1588 20.6045 22.0324 20.8817 23.3378C21.3209 25.4061 22.1808 27.0841 23.4311 28.3123C24.0473 28.9176 24.5505 29.2801 25.2114 29.595C27.5897 30.7281 30.0845 29.9714 32.0287 27.5273C32.7686 26.5972 33.4466 25.168 33.7582 23.8815C33.8093 23.6704 33.8644 23.4496 33.8805 23.3909C33.9222 23.2389 34.0245 22.5909 34.078 22.1398C34.1427 21.5951 34.167 20.2946 34.123 19.735C34.0863 19.2672 33.9476 18.459 33.8646 18.2286C33.839 18.1576 33.8285 18.0899 33.8413 18.078C33.8541 18.0661 34.1155 17.968 34.4223 17.86C34.9789 17.6641 35.4016 17.5144 36.0427 17.2863C36.2291 17.2199 36.4021 17.1656 36.4271 17.1656C36.4666 17.1656 36.4725 17.3002 36.4725 18.2136V19.2616H36.3535C36.2724 19.2616 36.2109 19.2827 36.16 19.328C36.0905 19.3898 36.0809 19.4345 36.0218 19.97C35.9869 20.2867 35.9383 20.6876 35.9139 20.861C35.8547 21.2811 35.8568 21.3183 35.9447 21.4044L36.02 21.478L36.9421 21.4695C38.0181 21.4594 37.9681 21.4746 37.938 21.1656C37.8956 20.7296 37.8268 20.1161 37.8006 19.9405C37.7848 19.835 37.7632 19.6705 37.7527 19.5749C37.728 19.3525 37.6456 19.2616 37.4688 19.2616H37.3468V18.0411V16.8206L37.561 16.7495C37.793 16.6726 37.9829 16.5352 38.0605 16.3882C38.0874 16.3373 38.1108 16.2215 38.1125 16.1308C38.1181 15.8343 37.9235 15.6135 37.5579 15.5015C37.4832 15.4786 37.3069 15.4174 37.1659 15.3655C37.025 15.3135 36.8757 15.2602 36.8343 15.247C36.7928 15.2337 36.63 15.1767 36.4725 15.1202C36.3149 15.0636 35.9215 14.9238 35.5981 14.8094C35.2747 14.695 34.8949 14.5595 34.7539 14.5082C34.613 14.457 34.3687 14.3705 34.2112 14.316C33.9314 14.2193 33.4729 14.0575 33.171 13.9489C32.6843 13.7739 32.061 13.5531 31.9047 13.5004C31.7511 13.4485 31.3534 13.3074 30.6686 13.062C30.5857 13.0322 30.1719 12.8865 29.749 12.7381C29.3262 12.5897 28.9124 12.4437 28.8294 12.4135C28.7465 12.3834 28.5837 12.3254 28.4676 12.2846C28.3516 12.2438 28.1249 12.163 27.964 12.105C27.6359 11.9868 27.3749 11.9683 27.1863 12.05ZM25.2868 19.8548C26.0414 20.0348 26.523 20.5154 26.523 21.0883C26.523 21.2797 26.4208 21.5456 26.2063 21.9122C26.0204 22.23 25.9952 22.2977 26.0227 22.405C26.0733 22.6023 26.4497 22.617 26.9601 22.4415C27.3104 22.3211 27.5202 22.2358 28.1209 21.9699C29.1045 21.5344 29.2656 21.4654 29.5832 21.3439C30.9146 20.8345 31.6863 20.7704 32.1191 21.1331C32.6114 21.5457 32.6216 22.6807 32.1457 24.0882C31.4776 26.0639 29.9653 27.8739 28.5125 28.4363C27.9087 28.6701 27.2739 28.7164 26.6256 28.574C25.8599 28.4059 25.2648 28.0676 24.6048 27.4254C23.6431 26.4896 22.9434 25.189 22.5235 23.5568C22.4103 23.1163 22.3899 23.0161 22.3194 22.5531C22.2288 21.958 22.2405 21.5778 22.3605 21.2136C22.7052 20.1672 24.0259 19.554 25.2868 19.8548ZM23.9263 30.5598C23.6548 30.7827 23.4055 30.9895 23.3723 31.0193C23.3391 31.0492 23.1557 31.1999 22.9646 31.3542L22.6173 31.6347L20.9898 32.3696C20.0947 32.7738 19.281 33.1405 19.1815 33.1845C18.4877 33.4914 18.2548 33.6205 17.9891 33.8459C17.6314 34.1493 17.5287 34.3567 16.7545 36.3392C15.9079 38.5069 15.2357 40.7617 15.0471 42.0661C14.9915 42.4513 14.9833 43.1864 15.0324 43.3946C15.1088 43.7185 15.2597 43.902 15.5032 43.9671C15.5894 43.9902 19.0069 43.9994 27.5049 43.9996C40.721 43.9998 39.6039 44.0179 39.7882 43.7998C39.9509 43.6072 40 43.383 40 42.8316C40 42.5556 39.9798 42.2059 39.9529 42.0155C39.8153 41.0425 39.4367 39.6619 38.8334 37.9333C38.5749 37.1926 38.5175 37.0332 38.4083 36.7524C38.3578 36.6226 38.2688 36.3901 38.2107 36.2358C38.0877 35.9098 37.7801 35.1265 37.7411 35.0403C37.7264 35.0078 37.6571 34.8445 37.587 34.6774C37.4247 34.2899 37.2837 34.0777 37.0537 33.8742C36.7993 33.6491 36.5533 33.5121 35.7903 33.1708C35.4276 33.0085 34.9951 32.8135 34.8293 32.7375C34.4933 32.5835 34.3192 32.5045 34.0303 32.375C33.9225 32.3267 33.563 32.1651 33.2313 32.0158C32.8997 31.8665 32.5732 31.7199 32.5058 31.6899C32.4385 31.66 31.9799 31.3023 31.4868 30.8951C30.9937 30.4878 30.5791 30.1546 30.5655 30.1546C30.5519 30.1546 29.8946 30.7807 29.1047 31.546C27.4724 33.1275 27.6262 32.9201 27.7155 33.4201C27.7413 33.5644 27.781 33.8085 27.8039 33.9628C27.9053 34.6489 27.9751 35.1106 28.0606 35.6602C28.1111 35.9849 28.1723 36.3834 28.1967 36.5458C28.221 36.7082 28.2671 37.0137 28.2991 37.2248C28.3311 37.4358 28.3852 37.7945 28.4193 38.0218C28.4534 38.2491 28.4954 38.5148 28.5125 38.6122C28.5297 38.7097 28.5707 38.9753 28.6036 39.2027C28.6365 39.43 28.7109 39.9211 28.769 40.2942C28.8271 40.6672 28.8747 41.0298 28.8747 41.0999C28.8747 41.2356 28.8892 41.2122 28.4222 41.83C28.3118 41.9761 28.0765 42.2903 27.8994 42.5281C27.7223 42.7659 27.5565 42.9684 27.5309 42.978C27.4699 43.0009 27.4085 42.9349 27.079 42.4921C26.9287 42.2903 26.6747 41.9504 26.5143 41.7368C26.1062 41.1932 26.091 41.1653 26.1263 41.0276C26.1423 40.9656 26.1638 40.8418 26.1741 40.7525C26.1844 40.6632 26.2463 40.2447 26.3115 39.8226C26.4475 38.9423 26.5945 37.9782 26.764 36.8558C26.8289 36.4255 26.9168 35.8543 26.9592 35.5864C27.0016 35.3185 27.0633 34.9133 27.0962 34.686C27.1293 34.4587 27.1834 34.1067 27.2166 33.9037C27.2498 33.7008 27.293 33.4027 27.3126 33.2414L27.3481 32.9482L25.9042 31.5514C25.11 30.7832 24.4512 30.1546 24.4402 30.1546C24.4291 30.1546 24.1979 30.337 23.9263 30.5598Z" fill="white"/>
</svg>
