<svg width="116" height="116" viewBox="0 0 116 116" fill="none" xmlns="http://www.w3.org/2000/svg">
<rect width="116" height="116" rx="25" fill="url(#paint0_linear_176_179)"/>
<path d="M31.1312 34.687V62.9362C31.1312 78.3148 43.3856 90.7788 58.5 90.7788C73.6144 90.7788 85.8688 78.3148 85.8688 62.9362V34.7022L58.3356 25.4948L31.1312 34.687ZM58.3279 20L91 30.9212V62.9362C91 81.1952 76.4476 96 58.5 96C40.5524 96 26 81.1952 26 62.9362V30.9212L58.3279 20Z" fill="white"/>
<path d="M55.2525 51.9325L55.2523 51.932L52.5057 45.5236C52.5056 45.5235 52.5056 45.5235 52.5056 45.5234C52.361 45.1878 52.1118 44.9079 51.7951 44.7256C51.4788 44.5436 51.1122 44.4687 50.75 44.5119C49.024 44.7344 47.4379 45.5773 46.2878 46.8834C45.1373 48.1899 44.5018 49.8707 44.5 51.6116C44.5001 62.1909 53.1077 70.7985 63.687 70.7988C65.428 70.797 67.1088 70.1615 68.4155 69.0109C69.7216 67.8608 70.5645 66.2746 70.7869 64.5486C70.8302 64.1863 70.7553 63.8197 70.5733 63.5035C70.3911 63.1869 70.1113 62.9378 69.7758 62.7933L55.2525 51.9325ZM55.2525 51.9325C55.3624 52.1881 55.4072 52.4669 55.3829 52.7441C55.3586 53.0212 55.266 53.2881 55.1134 53.5207L55.113 53.5212L52.8387 56.9963L52.6826 57.2349L52.8084 57.4908C53.8844 59.6785 55.6587 61.4456 57.8513 62.512L58.1089 62.6373L58.3473 62.4784L61.7712 60.196L61.7719 60.1955C62.0051 60.0395 62.2736 59.9443 62.553 59.9186C62.8323 59.893 63.1137 59.9376 63.3713 60.0486L63.3721 60.049L69.7752 62.7931L55.2525 51.9325ZM60.8467 45.9892L60.8467 45.989C60.8668 45.9137 60.9015 45.843 60.9489 45.7812C60.9963 45.7193 61.0554 45.6673 61.1229 45.6283C61.1904 45.5893 61.2649 45.5639 61.3422 45.5537C61.4194 45.5435 61.4979 45.5487 61.5731 45.5688C63.5282 46.0945 65.3108 47.1248 66.7424 48.5564C68.1741 49.9881 69.2044 51.7708 69.7301 53.726L69.7301 53.726L69.7312 53.7299C69.7522 53.8055 69.758 53.8846 69.7482 53.9624C69.7385 54.0403 69.7134 54.1154 69.6745 54.1835C69.6356 54.2516 69.5835 54.3113 69.5213 54.3592C69.4592 54.4071 69.3881 54.4422 69.3123 54.4624C69.2365 54.4827 69.1575 54.4877 69.0797 54.4772C69.002 54.4667 68.9271 54.4409 68.8593 54.4013C68.7916 54.3617 68.7324 54.3091 68.6851 54.2465C68.6379 54.1838 68.6035 54.1125 68.584 54.0365L68.584 54.0365L68.5825 54.031C68.1111 52.2777 67.1872 50.6791 65.9035 49.3953C64.6197 48.1116 63.0211 47.1877 61.2678 46.7163L61.267 46.7161C61.1149 46.6754 60.9852 46.576 60.9063 46.4397C60.8275 46.3034 60.806 46.1414 60.8467 45.9892ZM69.6088 64.4002L69.6571 64.025L69.3093 63.8765L62.9039 61.1403L62.6552 61.034L62.4301 61.1841L59.0073 63.4665L59.0071 63.4667C58.7644 63.6287 58.4839 63.725 58.1929 63.746C57.9025 63.7671 57.6116 63.7125 57.3486 63.5876C54.9063 62.4038 52.9303 60.4368 51.7353 58C51.6097 57.7385 51.5538 57.449 51.5728 57.1595C51.5919 56.8695 51.6856 56.5893 51.8448 56.3461L51.8449 56.346L54.1194 52.8706L54.2662 52.6462L54.1606 52.3998L51.4139 45.9908L51.265 45.6433L50.89 45.692C49.4519 45.8786 48.1309 46.5822 47.1736 47.6714C46.2163 48.7606 45.688 50.161 45.6875 51.6111L45.6875 51.6119C45.6929 56.384 47.591 60.959 50.9654 64.3334C54.3398 67.7078 58.9148 69.6059 63.6869 69.6113H63.6879C65.1394 69.6101 66.5409 69.0806 67.6305 68.1216C68.7201 67.1626 69.4233 65.8398 69.6088 64.4002ZM62.8098 52.4891C62.0697 51.7489 61.1482 51.2161 60.1375 50.9438C59.9875 50.9017 59.86 50.8022 59.7826 50.6669C59.7049 50.5311 59.684 50.3701 59.7244 50.2189C59.7648 50.0677 59.8632 49.9386 59.9983 49.8596C60.1326 49.781 60.2925 49.7584 60.4433 49.7965C61.6556 50.123 62.761 50.7622 63.6488 51.65C64.5367 52.538 65.1759 53.6435 65.5023 54.8561C65.5409 55.0071 65.5184 55.1673 65.4398 55.302C65.3609 55.4373 65.2317 55.536 65.0803 55.5764C64.929 55.6169 64.7678 55.5959 64.6318 55.518C64.4963 55.4403 64.3968 55.3123 64.355 55.1618C64.0828 54.151 63.55 53.2293 62.8098 52.4891Z" fill="white" stroke="white"/>
<defs>
<linearGradient id="paint0_linear_176_179" x1="58" y1="116" x2="58" y2="-136.5" gradientUnits="userSpaceOnUse">
<stop stop-color="#2575FC"/>
<stop offset="0.904167" stop-color="#CBDBF6" stop-opacity="0.0958335"/>
<stop offset="1" stop-color="#DCE6F5" stop-opacity="0"/>
</linearGradient>
</defs>
</svg>
