<svg width="262" height="52" viewBox="0 0 262 52" fill="none" xmlns="http://www.w3.org/2000/svg">
<path d="M17.712 51.552C14.112 51.552 10.992 50.736 8.352 49.104C5.712 47.424 3.648 45.168 2.16 42.336C0.72 39.504 0 36.384 0 32.976C0 29.52 0.72 26.4 2.16 23.616C3.648 20.784 5.712 18.552 8.352 16.92C10.992 15.24 14.112 14.4 17.712 14.4C21.984 14.4 25.608 15.504 28.584 17.712C31.608 19.92 33.648 22.776 34.704 26.28H28.872C28.056 24.216 26.736 22.536 24.912 21.24C23.136 19.944 20.976 19.296 18.432 19.296C15.792 19.296 13.488 19.92 11.52 21.168C9.552 22.416 8.04 24.072 6.984 26.136C5.928 28.2 5.4 30.48 5.4 32.976C5.4 35.424 5.928 37.704 6.984 39.816C8.04 41.88 9.552 43.536 11.52 44.784C13.488 46.032 15.792 46.656 18.432 46.656C20.976 46.656 23.136 46.008 24.912 44.712C26.736 43.416 28.056 41.736 28.872 39.672H34.704C33.648 43.176 31.608 46.032 28.584 48.24C25.608 50.448 21.984 51.552 17.712 51.552Z" fill="white"/>
<path d="M56.5881 51.552C53.0841 51.552 50.0121 50.736 47.3721 49.104C44.7801 47.424 42.7641 45.168 41.3241 42.336C39.8841 39.504 39.1641 36.384 39.1641 32.976C39.1641 29.52 39.8841 26.4 41.3241 23.616C42.7641 20.784 44.7801 18.552 47.3721 16.92C50.0121 15.24 53.0841 14.4 56.5881 14.4C59.5641 14.4 62.1081 14.976 64.2201 16.128C66.3801 17.28 68.1321 18.84 69.4761 20.808V14.976H74.8761V50.976H69.4761V45.216C68.1321 47.136 66.3801 48.672 64.2201 49.824C62.1081 50.976 59.5641 51.552 56.5881 51.552ZM57.3081 46.656C59.9961 46.656 62.2521 46.032 64.0761 44.784C65.9481 43.536 67.3641 41.88 68.3241 39.816C69.2841 37.704 69.7641 35.424 69.7641 32.976C69.7641 30.48 69.2841 28.2 68.3241 26.136C67.3641 24.072 65.9481 22.416 64.0761 21.168C62.2521 19.92 59.9961 19.296 57.3081 19.296C54.6681 19.296 52.3881 19.92 50.4681 21.168C48.5481 22.416 47.0841 24.072 46.0761 26.136C45.0681 28.2 44.5641 30.48 44.5641 32.976C44.5641 35.424 45.0681 37.704 46.0761 39.816C47.0841 41.88 48.5481 43.536 50.4681 44.784C52.3881 46.032 54.6681 46.656 57.3081 46.656Z" fill="white"/>
<path d="M84.2164 50.976V0.575996H89.6164V50.976H84.2164Z" fill="white"/>
<path d="M98.982 50.976V0.575996H104.382V50.976H98.982Z" fill="white"/>
<path d="M142.18 51.552C138.868 51.552 136.06 51 133.756 49.896C131.5 48.792 129.772 47.352 128.572 45.576C127.372 43.752 126.7 41.784 126.556 39.672H132.172C132.316 40.872 132.724 42.048 133.396 43.2C134.116 44.304 135.196 45.216 136.636 45.936C138.076 46.608 139.948 46.944 142.252 46.944C142.972 46.944 143.86 46.872 144.916 46.728C145.972 46.584 146.98 46.32 147.94 45.936C148.948 45.552 149.788 44.976 150.46 44.208C151.132 43.44 151.468 42.456 151.468 41.256C151.468 39.768 150.892 38.616 149.74 37.8C148.588 36.984 147.1 36.36 145.276 35.928C143.452 35.448 141.508 34.992 139.444 34.56C137.428 34.128 135.508 33.576 133.684 32.904C131.86 32.184 130.372 31.2 129.22 29.952C128.068 28.656 127.492 26.904 127.492 24.696C127.492 21.432 128.668 18.912 131.02 17.136C133.42 15.312 136.948 14.4 141.604 14.4C144.772 14.4 147.34 14.904 149.308 15.912C151.324 16.872 152.836 18.12 153.844 19.656C154.9 21.192 155.524 22.848 155.716 24.624H150.244C150.052 23.088 149.284 21.768 147.94 20.664C146.644 19.56 144.484 19.008 141.46 19.008C135.748 19.008 132.892 20.736 132.892 24.192C132.892 25.632 133.468 26.736 134.62 27.504C135.772 28.272 137.26 28.896 139.084 29.376C140.908 29.808 142.828 30.24 144.844 30.672C146.908 31.056 148.852 31.608 150.676 32.328C152.5 33.048 153.988 34.08 155.14 35.424C156.292 36.72 156.868 38.496 156.868 40.752C156.868 44.256 155.524 46.944 152.836 48.816C150.196 50.64 146.644 51.552 142.18 51.552Z" fill="white"/>
<path d="M179.002 51.552C175.498 51.552 172.426 50.736 169.786 49.104C167.194 47.424 165.178 45.168 163.738 42.336C162.298 39.504 161.578 36.384 161.578 32.976C161.578 29.52 162.298 26.4 163.738 23.616C165.178 20.784 167.194 18.552 169.786 16.92C172.426 15.24 175.498 14.4 179.002 14.4C181.978 14.4 184.522 14.976 186.634 16.128C188.794 17.28 190.546 18.84 191.89 20.808V14.976H197.29V50.976H191.89V45.216C190.546 47.136 188.794 48.672 186.634 49.824C184.522 50.976 181.978 51.552 179.002 51.552ZM179.722 46.656C182.41 46.656 184.666 46.032 186.49 44.784C188.362 43.536 189.778 41.88 190.738 39.816C191.698 37.704 192.178 35.424 192.178 32.976C192.178 30.48 191.698 28.2 190.738 26.136C189.778 24.072 188.362 22.416 186.49 21.168C184.666 19.92 182.41 19.296 179.722 19.296C177.082 19.296 174.802 19.92 172.882 21.168C170.962 22.416 169.498 24.072 168.49 26.136C167.482 28.2 166.978 30.48 166.978 32.976C166.978 35.424 167.482 37.704 168.49 39.816C169.498 41.88 170.962 43.536 172.882 44.784C174.802 46.032 177.082 46.656 179.722 46.656Z" fill="white"/>
<path d="M209.078 50.976V19.728H202.886V14.976H209.078V11.808C209.078 7.872 210.254 4.92 212.606 2.952C215.006 0.983998 218.27 0 222.398 0H222.83V5.112H222.11C219.614 5.112 217.718 5.688 216.422 6.84C215.126 7.944 214.478 9.744 214.478 12.24V14.976H222.83V19.728H214.478V50.976H209.078Z" fill="white"/>
<path d="M243.989 51.552C240.341 51.552 237.149 50.736 234.413 49.104C231.677 47.424 229.541 45.168 228.005 42.336C226.517 39.504 225.773 36.384 225.773 32.976C225.773 29.52 226.493 26.4 227.933 23.616C229.373 20.784 231.437 18.552 234.125 16.92C236.813 15.24 239.981 14.4 243.629 14.4C247.325 14.4 250.493 15.24 253.133 16.92C255.821 18.552 257.885 20.784 259.325 23.616C260.765 26.4 261.485 29.52 261.485 32.976V35.136H231.317C231.605 37.248 232.277 39.192 233.333 40.968C234.437 42.696 235.901 44.088 237.725 45.144C239.549 46.152 241.661 46.656 244.061 46.656C246.605 46.656 248.741 46.104 250.469 45C252.197 43.848 253.541 42.384 254.501 40.608H260.405C259.157 43.824 257.165 46.464 254.429 48.528C251.741 50.544 248.261 51.552 243.989 51.552ZM231.389 30.096H255.869C255.389 27.024 254.093 24.456 251.981 22.392C249.869 20.328 247.085 19.296 243.629 19.296C240.173 19.296 237.389 20.328 235.277 22.392C233.213 24.456 231.917 27.024 231.389 30.096Z" fill="white"/>
</svg>
