<svg width="14" height="35" viewBox="0 0 14 35" fill="none" xmlns="http://www.w3.org/2000/svg">
<path d="M6.50592 5.6823C8.06909 5.6823 9.3363 4.41028 9.3363 2.84115C9.3363 1.27203 8.06909 0 6.50592 0C4.94274 0 3.67554 1.27203 3.67554 2.84115C3.67554 4.41028 4.94274 5.6823 6.50592 5.6823Z" fill="white"/>
<path d="M12.9852 9.7559C12.9685 8.1595 11.7706 6.69629 10.3613 6.45232C10.0813 6.40453 9.79777 6.38018 9.51373 6.37951C8.61471 6.37702 7.43977 6.38013 6.5023 6.38013C5.56422 6.38013 4.39114 6.37764 3.49336 6.37951C3.2091 6.38005 2.92539 6.4044 2.64517 6.45232C1.23649 6.69629 0.0373769 8.1595 0.0193964 9.7559C-0.0109845 12.7701 0.00389605 15.7849 0.002036 18.7997C0.002036 18.9086 0.00885949 19.0206 0.0218799 19.1289C0.0851217 19.615 0.405048 19.9598 0.853941 20.0326C1.21975 20.0917 1.64199 19.8085 1.77901 19.3685C1.84473 19.1557 1.86395 18.9142 1.86395 18.6864C1.87077 16.0139 1.87139 13.3427 1.86395 10.6714C1.86147 10.3316 1.94269 10.1636 2.26944 10.2021C2.46351 10.2239 2.66439 10.2221 2.86032 10.2021C3.14181 10.1748 3.23357 10.3248 3.22055 10.6123C3.21373 10.7349 3.22055 10.8575 3.22055 10.9795V32.9307C3.22055 33.1504 3.22179 33.3714 3.23357 33.5917C3.26395 34.1985 3.61798 34.717 4.1295 34.913C5.02604 35.2603 5.93499 34.5271 5.93685 33.443C5.94119 29.288 5.93933 25.133 5.93933 20.9767C5.93933 20.2685 6.16439 20.0226 6.50168 19.948C6.83959 20.0226 7.06342 20.2685 7.06342 20.9767C7.06466 25.1311 7.06342 29.2861 7.0659 33.443C7.06838 34.5271 7.97981 35.2597 8.87573 34.913C9.38601 34.7163 9.73942 34.1985 9.77228 33.5917C9.78406 33.3714 9.78406 33.1504 9.78406 32.9307C9.78654 25.6141 9.7853 18.298 9.7853 10.9795C9.7853 10.8569 9.79088 10.7349 9.7853 10.6123C9.77104 10.3248 9.86342 10.1748 10.1455 10.2021C10.3396 10.2221 10.5411 10.2239 10.7358 10.2021C11.0632 10.1636 11.1419 10.3316 11.1419 10.6714C11.1332 13.3427 11.1351 16.0139 11.1394 18.6864C11.1407 18.9148 11.1599 19.1557 11.2256 19.3685C11.362 19.8092 11.7849 20.0917 12.1507 20.0326C12.5996 19.9592 12.9207 19.615 12.9809 19.1289C12.9959 19.0198 13.0031 18.9098 13.0026 18.7997C13.0007 15.7842 13.0181 12.7695 12.9846 9.7559" fill="white"/>
</svg>
