<svg width="46" height="46" viewBox="0 0 46 46" fill="none" xmlns="http://www.w3.org/2000/svg">
<path fill-rule="evenodd" clip-rule="evenodd" d="M14.1919 33.2676C20.7517 32.3093 25.2683 32.3917 31.8368 33.3011C32.3124 33.3701 32.7471 33.6088 33.0605 33.9733C33.3738 34.3377 33.5447 34.8033 33.5416 35.2839C33.5416 35.7439 33.3835 36.1905 33.0979 36.5393C32.6002 37.1475 32.0902 37.7456 31.5684 38.3333H34.0994C34.2585 38.1436 34.4185 37.95 34.5805 37.7535C35.1489 37.0565 35.459 36.1844 35.4583 35.2849C35.4583 33.3442 34.0419 31.672 32.0993 31.4036C25.3757 30.4731 20.676 30.384 13.915 31.372C11.9523 31.6585 10.5416 33.3567 10.5416 35.3107C10.5416 36.178 10.8243 37.0357 11.36 37.7305C11.5182 37.9356 11.6744 38.1369 11.8296 38.3343H14.2993C13.8138 37.7531 13.3403 37.162 12.879 36.5614C12.6049 36.2018 12.457 35.7619 12.4583 35.3098C12.4583 34.2777 13.2 33.4123 14.1919 33.2676Z" fill="white"/>
<path fill-rule="evenodd" clip-rule="evenodd" d="M23 23.9584C23.7551 23.9584 24.5028 23.8096 25.2004 23.5207C25.898 23.2317 26.5319 22.8082 27.0658 22.2742C27.5998 21.7403 28.0233 21.1064 28.3123 20.4088C28.6013 19.7112 28.75 18.9635 28.75 18.2084C28.75 17.4533 28.6013 16.7055 28.3123 16.0079C28.0233 15.3103 27.5998 14.6764 27.0658 14.1425C26.5319 13.6086 25.898 13.185 25.2004 12.896C24.5028 12.6071 23.7551 12.4584 23 12.4584C21.475 12.4584 20.0124 13.0642 18.9341 14.1425C17.8558 15.2208 17.25 16.6834 17.25 18.2084C17.25 19.7333 17.8558 21.1959 18.9341 22.2742C20.0124 23.3526 21.475 23.9584 23 23.9584ZM23 25.875C25.0333 25.875 26.9834 25.0673 28.4211 23.6295C29.8589 22.1917 30.6666 20.2417 30.6666 18.2084C30.6666 16.175 29.8589 14.225 28.4211 12.7872C26.9834 11.3494 25.0333 10.5417 23 10.5417C20.9667 10.5417 19.0166 11.3494 17.5788 12.7872C16.141 14.225 15.3333 16.175 15.3333 18.2084C15.3333 20.2417 16.141 22.1917 17.5788 23.6295C19.0166 25.0673 20.9667 25.875 23 25.875Z" fill="white"/>
<path fill-rule="evenodd" clip-rule="evenodd" d="M23 40.25C32.5268 40.25 40.25 32.5268 40.25 23C40.25 13.4732 32.5268 5.75001 23 5.75001C13.4732 5.75001 5.74998 13.4732 5.74998 23C5.74998 32.5268 13.4732 40.25 23 40.25ZM23 42.1667C33.5857 42.1667 42.1666 33.5858 42.1666 23C42.1666 12.4143 33.5857 3.83334 23 3.83334C12.4142 3.83334 3.83331 12.4143 3.83331 23C3.83331 33.5858 12.4142 42.1667 23 42.1667Z" fill="white"/>
</svg>
