<svg width="55" height="55" viewBox="0 0 55 55" fill="none" xmlns="http://www.w3.org/2000/svg">
<path fill-rule="evenodd" clip-rule="evenodd" d="M26.6671 8.02808C24.959 8.28964 23.6642 9.51208 23.3454 11.1642C22.9689 13.1158 24.2561 15.0609 26.2634 15.5734C26.788 15.7074 27.6975 15.6984 28.2156 15.554C29.3592 15.2354 30.2212 14.5338 30.7373 13.5013C31.0115 12.953 31.121 12.4774 31.1211 11.8346C31.1212 11.2059 31.0092 10.7255 30.7315 10.1636C30.3356 9.36272 29.7427 8.78244 28.9248 8.39565C28.6763 8.27809 28.326 8.14722 28.1465 8.10485C27.7243 8.00513 27.0466 7.96999 26.6671 8.02808ZM29.5274 17.0666C28.8857 17.2031 28.2645 17.5663 27.8792 18.0303C27.6508 18.3054 26.6977 20.0904 26.7512 20.1428C26.764 20.1554 27.0981 19.6891 27.4936 19.1068C27.8891 18.5244 28.226 18.0403 28.2424 18.031C28.2587 18.0218 28.4126 18.1072 28.5844 18.2208L28.8968 18.4273L27.1031 21.0548C24.0364 25.5468 23.2653 26.6246 23.0301 26.7477C22.9774 26.7754 22.039 26.7287 20.537 26.6238C17.4883 26.4108 17.5695 26.4121 17.3088 26.5732C17.0492 26.7336 16.9297 26.9513 16.9283 27.2668C16.9266 27.648 17.042 27.7915 17.4953 27.9719C17.8367 28.1079 18.0884 28.1505 19.8609 28.3726C20.9518 28.5093 22.1859 28.6648 22.6033 28.718C23.4559 28.8269 23.7441 28.8037 24.1003 28.5974C24.4035 28.4219 24.5319 28.2735 26.1652 26.2101C26.9891 25.1694 27.8577 24.0747 28.0956 23.7773C28.8495 22.8352 29.1062 22.5123 29.927 21.4738C30.3677 20.9162 30.7479 20.4599 30.7719 20.4599C30.823 20.4599 31.3609 20.8645 31.3591 20.9016C31.3577 20.9291 30.923 21.482 29.2524 23.5808C28.65 24.3376 27.5785 25.6861 26.8713 26.5773L25.5855 28.1978L25.5865 28.8135C25.587 29.1522 25.6204 30.4245 25.6607 31.6409C25.7009 32.8573 25.7344 33.9133 25.735 33.9876L25.7361 34.1228H27.458C29.348 34.1228 29.501 34.1054 30.0935 33.8232C30.466 33.6458 30.9355 33.2357 31.1626 32.8893C31.4383 32.4689 31.5574 32.0648 31.6379 31.2779C31.7186 30.4878 32.0258 27.3267 32.2641 24.834C32.3481 23.9555 32.4496 22.905 32.4896 22.4995C32.5297 22.0941 32.6106 21.2758 32.6694 20.6811C32.7846 19.5147 32.7765 19.22 32.6161 18.7643C32.2619 17.7574 31.3151 17.088 30.1802 17.0421C29.9317 17.0321 29.6379 17.0431 29.5274 17.0666ZM39.0685 18.1058C38.0448 18.1993 37.0811 18.6477 36.348 19.3717C35.5225 20.187 35.1214 21.0905 35.0268 22.347C35.0002 22.7012 34.8657 23.8535 34.7279 24.9077C34.4526 27.0125 33.4376 34.4944 33.3926 34.7494L33.3644 34.9091L26.123 34.9092C18.3522 34.9092 18.568 34.9029 17.8955 35.1529C16.4517 35.6898 15.4418 37.1139 15.4418 38.6128C15.4418 39.249 15.555 39.7219 15.8475 40.308C16.0664 40.7466 16.1661 40.8824 16.5384 41.2492C17.0233 41.7269 17.4675 41.9981 18.1284 42.22L18.5301 42.3549L27.8452 42.3686C36.2151 42.3808 37.2007 42.3742 37.5594 42.3037C38.3206 42.1539 38.9797 41.7973 39.5273 41.2393C40.2523 40.5003 40.6001 39.6589 40.6001 38.6435C40.6001 37.9904 40.4803 37.5191 40.1532 36.8849L40.0063 36.6001L40.319 31.6764C40.4909 28.9683 40.6414 26.7451 40.6535 26.736C40.6656 26.7268 40.7771 26.6907 40.9014 26.6557C41.2161 26.567 41.8727 26.2371 42.1878 26.0092C44.0108 24.6912 44.5362 22.2238 43.407 20.2829C43.1639 19.865 42.5785 19.2231 42.173 18.93C41.3176 18.3115 40.1656 18.0057 39.0685 18.1058ZM13.494 27.4511C13.4401 27.539 13.1533 28.0421 12.8567 28.5692C12.5601 29.0963 12.1985 29.7376 12.0532 29.9944C11.9078 30.2512 11.7609 30.5142 11.7267 30.5789L11.6645 30.6964L12.5112 30.6643C12.9769 30.6467 15.1538 30.576 17.3486 30.5072C19.5436 30.4384 21.3452 30.3766 21.3521 30.3697C21.3591 30.3629 20.4333 29.9852 19.2947 29.5303C18.1561 29.0755 16.9646 28.5987 16.647 28.4708C14.9605 27.7913 13.6866 27.2914 13.6422 27.2914C13.6146 27.2914 13.5479 27.3632 13.494 27.4511ZM23.6575 29.7774C23.6388 29.8252 23.65 29.8477 23.6867 29.8357C23.7617 29.8113 23.8031 29.6996 23.737 29.6996C23.7101 29.6996 23.6743 29.7346 23.6575 29.7774ZM19.8357 30.9047C18.1786 31.0207 16.6985 31.1419 16.5466 31.1739C15.7365 31.3448 14.8754 32.0029 14.4869 32.7482C14.4366 32.8448 14.0788 33.929 13.6919 35.1574C13.3049 36.3859 12.5416 38.8065 11.9955 40.5365C11.0867 43.4154 11.0023 43.7132 11.0001 44.0515C10.998 44.3729 11.0193 44.4641 11.163 44.7498C11.6349 45.6878 12.813 45.9638 13.6627 45.3352C14.0768 45.029 14.0737 45.0358 15.1476 42.1092C15.2865 41.7308 15.4344 41.3949 15.4762 41.3629C15.5429 41.312 15.5366 41.2844 15.4255 41.1418C15.2275 40.8876 14.9015 40.1832 14.7816 39.7501C14.6265 39.1909 14.6255 38.1003 14.7794 37.5491C14.9027 37.1077 15.2073 36.4479 15.4463 36.1047C15.6852 35.7615 16.2223 35.2268 16.5795 34.9763C17.157 34.5716 18.0439 34.2364 18.7561 34.1539C18.8804 34.1396 19.3797 34.1267 19.8656 34.1253L20.7491 34.1228L21.3533 33.2259C22.7318 31.1794 23.0245 30.7391 23.0245 30.7115C23.0245 30.6955 22.9849 30.685 22.9366 30.6881C22.8883 30.6912 21.4929 30.7887 19.8357 30.9047ZM19.5351 43.2273C19.5233 43.2611 19.3417 43.9301 19.1315 44.714C18.9213 45.4979 18.7057 46.2936 18.6523 46.4823C18.4943 47.0406 18.4421 46.9993 19.3057 46.9993H20.056L20.3294 46.5201C20.8358 45.632 22.1208 43.3209 22.1513 43.2431C22.1783 43.1741 22.0412 43.1658 20.869 43.1658C19.8638 43.1658 19.5514 43.1802 19.5351 43.2273ZM33.1179 43.1917C33.1179 43.2068 33.5953 44.0697 34.1787 45.1092L35.2397 46.9993H35.9836C36.3927 46.9993 36.7371 46.9827 36.7488 46.9625C36.7605 46.9422 36.5412 46.0852 36.2616 45.058L35.7531 43.1904L34.4355 43.1773C33.7108 43.1701 33.1179 43.1766 33.1179 43.1917Z" fill="white"/>
</svg>
